<svg version="1.1" xmlns="http://www.w3.org/2000/svg" viewBox="0 0 840 1290" width="840" height="1290"><!-- svg-source:excalidraw --><metadata></metadata><defs><style class="style-fonts">
      </style></defs><rect x="0" y="0" width="840" height="1290" fill="#ffffff"></rect><g stroke-linecap="round" transform="translate(10 10) rotate(0 195 635)"><path d="M0 0 L390 0 L390 1270 L0 1270" stroke="none" stroke-width="0" fill="#fafbf7"></path><path d="M0 0 C78 0, 156 0, 390 0 M0 0 C106.08 0, 212.16 0, 390 0 M390 0 C390 298.62, 390 597.24, 390 1270 M390 0 C390 476.61, 390 953.22, 390 1270 M390 1270 C249.01 1270, 108.02 1270, 0 1270 M390 1270 C296.05 1270, 202.09 1270, 0 1270 M0 1270 C0 837.33, 0 404.65, 0 0 M0 1270 C0 823.57, 0 377.14, 0 0" stroke="#b8c3af" stroke-width="1" fill="none"></path></g><g transform="translate(30 28) rotate(0 141.12 7.5)"><text x="0" y="10.740234375" font-family="Helvetica, Segoe UI Emoji" font-size="12px" fill="#30382c" text-anchor="start" style="white-space: pre;" direction="ltr" dominant-baseline="alphabetic">ROOST / TASKS     •     FICTIONAL RESEARCH</text></g><g transform="translate(30 70) rotate(0 117.04 13.75)"><text x="0" y="19.6904296875" font-family="Helvetica, Segoe UI Emoji" font-size="22px" fill="#30382c" text-anchor="start" style="white-space: pre;" direction="ltr" dominant-baseline="alphabetic">C · Attention inbox</text></g><g transform="translate(30 114) rotate(0 120.12 8.125)"><text x="0" y="11.63525390625" font-family="Helvetica, Segoe UI Emoji" font-size="13px" fill="#30382c" text-anchor="start" style="white-space: pre;" direction="ltr" dominant-baseline="alphabetic">Roost project · 10:42 UTC fixture</text></g><g stroke-linecap="round" transform="translate(30 155) rotate(0 175 47.5)"><path d="M0 0 L350 0 L350 95 L0 95" stroke="none" stroke-width="0" fill="#e9efdf"></path><path d="M0 0 C70.01 0, 140.02 0, 350 0 M0 0 C125.99 0, 251.98 0, 350 0 M350 0 C350 35.69, 350 71.38, 350 95 M350 0 C350 26.26, 350 52.52, 350 95 M350 95 C277.35 95, 204.7 95, 0 95 M350 95 C278.41 95, 206.82 95, 0 95 M0 95 C0 66.17, 0 37.35, 0 0 M0 95 C0 61.03, 0 27.05, 0 0" stroke="#b8c3af" stroke-width="1" fill="none"></path></g><g transform="translate(46 170) rotate(0 94.08000000000001 30)"><text x="0" y="14.3203125" font-family="Helvetica, Segoe UI Emoji" font-size="16px" fill="#30382c" text-anchor="start" style="white-space: pre;" direction="ltr" dominant-baseline="alphabetic">2 / 2 task slots held</text><text x="0" y="34.3203125" font-family="Helvetica, Segoe UI Emoji" font-size="16px" fill="#30382c" text-anchor="start" style="white-space: pre;" direction="ltr" dominant-baseline="alphabetic">1 working · 1 blocked</text><text x="0" y="54.3203125" font-family="Helvetica, Segoe UI Emoji" font-size="16px" fill="#30382c" text-anchor="start" style="white-space: pre;" direction="ltr" dominant-baseline="alphabetic">2 tasks need you</text></g><g transform="translate(30 275) rotate(0 147.84 10)"><text x="0" y="14.3203125" font-family="Helvetica, Segoe UI Emoji" font-size="16px" fill="#30382c" text-anchor="start" style="white-space: pre;" direction="ltr" dominant-baseline="alphabetic">Needs you (2)   |   All tasks (5)</text></g><g stroke-linecap="round" transform="translate(30 320) rotate(0 175 94.5)"><path d="M0 0 L350 0 L350 189 L0 189" stroke="none" stroke-width="0" fill="#fff4e3"></path><path d="M0 0 C70.01 0, 140.03 0, 350 0 M0 0 C131.58 0, 263.17 0, 350 0 M350 0 C350 53.12, 350 106.24, 350 189 M350 0 C350 38.23, 350 76.45, 350 189 M350 189 C247.76 189, 145.53 189, 0 189 M350 189 C235.45 189, 120.91 189, 0 189 M0 189 C0 127.48, 0 65.96, 0 0 M0 189 C0 148.9, 0 108.8, 0 0" stroke="#b8c3af" stroke-width="1" fill="none"></path></g><g transform="translate(46 336) rotate(0 104.72000000000001 10.625)"><text x="0" y="15.21533203125" font-family="Helvetica, Segoe UI Emoji" font-size="17px" fill="#30382c" text-anchor="start" style="white-space: pre;" direction="ltr" dominant-baseline="alphabetic">P1  Repair export flow</text></g><g transform="translate(46 368) rotate(0 121.52000000000001 43.75)"><text x="0" y="12.5302734375" font-family="Helvetica, Segoe UI Emoji" font-size="14px" fill="#30382c" text-anchor="start" style="white-space: pre;" direction="ltr" dominant-baseline="alphabetic">Notion: In progress</text><text x="0" y="30.0302734375" font-family="Helvetica, Segoe UI Emoji" font-size="14px" fill="#30382c" text-anchor="start" style="white-space: pre;" direction="ltr" dominant-baseline="alphabetic">Worker: Blocked · slot held</text><text x="0" y="47.5302734375" font-family="Helvetica, Segoe UI Emoji" font-size="14px" fill="#30382c" text-anchor="start" style="white-space: pre;" direction="ltr" dominant-baseline="alphabetic">Draft #142 / 1 failed · b72e</text><text x="0" y="65.0302734375" font-family="Helvetica, Segoe UI Emoji" font-size="14px" fill="#30382c" text-anchor="start" style="white-space: pre;" direction="ltr" dominant-baseline="alphabetic">You → Inspect terminal approval</text><text x="0" y="82.5302734375" font-family="Helvetica, Segoe UI Emoji" font-size="14px" fill="#30382c" text-anchor="start" style="white-space: pre;" direction="ltr" dominant-baseline="alphabetic">[ Open task → ]</text></g><g stroke-linecap="round" transform="translate(30 530) rotate(0 175 82)"><path d="M0 0 L350 0 L350 164 L0 164" stroke="none" stroke-width="0" fill="#fff4e3"></path><path d="M0 0 C70.02 0, 140.03 0, 350 0 M0 0 C137.18 0, 274.35 0, 350 0 M350 0 C350 63.38, 350 126.76, 350 164 M350 0 C350 53.81, 350 107.62, 350 164 M350 164 C218.18 164, 86.35 164, 0 164 M350 164 C262.5 164, 175 164, 0 164 M0 164 C0 107, 0 50, 0 0 M0 164 C0 120.26, 0 76.51, 0 0" stroke="#b8c3af" stroke-width="1" fill="none"></path></g><g transform="translate(46 546) rotate(0 90.44000000000001 10.625)"><text x="0" y="15.21533203125" font-family="Helvetica, Segoe UI Emoji" font-size="17px" fill="#30382c" text-anchor="start" style="white-space: pre;" direction="ltr" dominant-baseline="alphabetic">P2  Compact spacing</text></g><g transform="translate(46 578) rotate(0 109.76 35)"><text x="0" y="12.5302734375" font-family="Helvetica, Segoe UI Emoji" font-size="14px" fill="#30382c" text-anchor="start" style="white-space: pre;" direction="ltr" dominant-baseline="alphabetic">Notion: Human review</text><text x="0" y="30.0302734375" font-family="Helvetica, Segoe UI Emoji" font-size="14px" fill="#30382c" text-anchor="start" style="white-space: pre;" direction="ltr" dominant-baseline="alphabetic">Worker: Idle · no slot</text><text x="0" y="47.5302734375" font-family="Helvetica, Segoe UI Emoji" font-size="14px" fill="#30382c" text-anchor="start" style="white-space: pre;" direction="ltr" dominant-baseline="alphabetic">Open #141 / 3 passed · a61d</text><text x="0" y="65.0302734375" font-family="Helvetica, Segoe UI Emoji" font-size="14px" fill="#30382c" text-anchor="start" style="white-space: pre;" direction="ltr" dominant-baseline="alphabetic">You → Review PR and evidence</text></g><g transform="translate(30 930) rotate(0 147.84 30)"><text x="0" y="14.3203125" font-family="Helvetica, Segoe UI Emoji" font-size="16px" fill="#30382c" text-anchor="start" style="white-space: pre;" direction="ltr" dominant-baseline="alphabetic">All tasks keeps working + queued</text><text x="0" y="34.3203125" font-family="Helvetica, Segoe UI Emoji" font-size="16px" fill="#30382c" text-anchor="start" style="white-space: pre;" direction="ltr" dominant-baseline="alphabetic">work reachable outside the inbox.</text><text x="0" y="54.3203125" font-family="Helvetica, Segoe UI Emoji" font-size="16px" fill="#30382c" text-anchor="start" style="white-space: pre;" direction="ltr" dominant-baseline="alphabetic">No one-tap approval shortcut.</text></g><g transform="translate(30 1040) rotate(0 161.28000000000003 30)"><text x="0" y="14.3203125" font-family="Helvetica, Segoe UI Emoji" font-size="16px" fill="#30382c" text-anchor="start" style="white-space: pre;" direction="ltr" dominant-baseline="alphabetic">GitHub unavailable? Show unknown</text><text x="0" y="34.3203125" font-family="Helvetica, Segoe UI Emoji" font-size="16px" fill="#30382c" text-anchor="start" style="white-space: pre;" direction="ltr" dominant-baseline="alphabetic">and the last observation, never</text><text x="0" y="54.3203125" font-family="Helvetica, Segoe UI Emoji" font-size="16px" fill="#30382c" text-anchor="start" style="white-space: pre;" direction="ltr" dominant-baseline="alphabetic">a current green check from old data.</text></g><g transform="translate(30 1160) rotate(0 152.32000000000002 20)"><text x="0" y="14.3203125" font-family="Helvetica, Segoe UI Emoji" font-size="16px" fill="#30382c" text-anchor="start" style="white-space: pre;" direction="ltr" dominant-baseline="alphabetic">Only a human marks Done.</text><text x="0" y="34.3203125" font-family="Helvetica, Segoe UI Emoji" font-size="16px" fill="#30382c" text-anchor="start" style="white-space: pre;" direction="ltr" dominant-baseline="alphabetic">All content is fictional research.</text></g><g stroke-linecap="round" transform="translate(440 10) rotate(0 195 635)"><path d="M0 0 L390 0 L390 1270 L0 1270" stroke="none" stroke-width="0" fill="#fafbf7"></path><path d="M0 0 C78.03 0, 156.06 0, 390 0 M0 0 C87.32 0, 174.64 0, 390 0 M390 0 C390 504.53, 390 1009.06, 390 1270 M390 0 C390 482.33, 390 964.66, 390 1270 M390 1270 C255.17 1270, 120.34 1270, 0 1270 M390 1270 C274.77 1270, 159.54 1270, 0 1270 M0 1270 C0 772.55, 0 275.11, 0 0 M0 1270 C0 792.65, 0 315.31, 0 0" stroke="#b8c3af" stroke-width="1" fill="none"></path></g><g transform="translate(460 32) rotate(0 123.75999999999999 8.125)"><text x="0" y="11.63525390625" font-family="Helvetica, Segoe UI Emoji" font-size="13px" fill="#30382c" text-anchor="start" style="white-space: pre;" direction="ltr" dominant-baseline="alphabetic">MOBILE DETAIL · SAME FOR A / B / C</text></g><g transform="translate(460 82) rotate(0 71.39999999999998 10.625)"><text x="0" y="15.21533203125" font-family="Helvetica, Segoe UI Emoji" font-size="17px" fill="#30382c" text-anchor="start" style="white-space: pre;" direction="ltr" dominant-baseline="alphabetic">← Back to tasks</text></g><g transform="translate(460 137) rotate(0 135.51999999999998 13.75)"><text x="0" y="19.6904296875" font-family="Helvetica, Segoe UI Emoji" font-size="22px" fill="#30382c" text-anchor="start" style="white-space: pre;" direction="ltr" dominant-baseline="alphabetic">P1  Repair export flow</text></g><g stroke-linecap="round" transform="translate(460 205) rotate(0 175 69.5)"><path d="M0 0 L350 0 L350 139 L0 139" stroke="none" stroke-width="0" fill="#fff4e3"></path><path d="M0 0 C70.03 0, 140.07 0, 350 0 M0 0 C109.15 0, 218.31 0, 350 0 M350 0 C350 46.95, 350 93.91, 350 139 M350 0 C350 39.05, 350 78.09, 350 139 M350 139 C212.88 139, 75.76 139, 0 139 M350 139 C259.32 139, 168.63 139, 0 139 M0 139 C0 89.73, 0 40.47, 0 0 M0 139 C0 85.91, 0 32.82, 0 0" stroke="#b8c3af" stroke-width="1" fill="none"></path></g><g transform="translate(476 221) rotate(0 99.96000000000004 10.625)"><text x="0" y="15.21533203125" font-family="Helvetica, Segoe UI Emoji" font-size="17px" fill="#30382c" text-anchor="start" style="white-space: pre;" direction="ltr" dominant-baseline="alphabetic">APPROVAL NEEDED · YOU</text></g><g transform="translate(476 253) rotate(0 117.60000000000002 26.25)"><text x="0" y="12.5302734375" font-family="Helvetica, Segoe UI Emoji" font-size="14px" fill="#30382c" text-anchor="start" style="white-space: pre;" direction="ltr" dominant-baseline="alphabetic">Inspect the network request in</text><text x="0" y="30.0302734375" font-family="Helvetica, Segoe UI Emoji" font-size="14px" fill="#30382c" text-anchor="start" style="white-space: pre;" direction="ltr" dominant-baseline="alphabetic">the original worker terminal.</text><text x="0" y="47.5302734375" font-family="Helvetica, Segoe UI Emoji" font-size="14px" fill="#30382c" text-anchor="start" style="white-space: pre;" direction="ltr" dominant-baseline="alphabetic">[ Inspect worker terminal ↗ ]</text></g><g stroke-linecap="round" transform="translate(460 380) rotate(0 175 57)"><path d="M0 0 L350 0 L350 114 L0 114" stroke="none" stroke-width="0" fill="#ffffff"></path><path d="M0 0 C70.04 0, 140.08 0, 350 0 M0 0 C114.75 0, 229.5 0, 350 0 M350 0 C350 27.73, 350 55.45, 350 114 M350 0 C350 23.57, 350 47.14, 350 114 M350 114 C253.29 114, 156.58 114, 0 114 M350 114 C216.36 114, 82.72 114, 0 114 M0 114 C0 71.08, 0 28.16, 0 0 M0 114 C0 87.04, 0 60.07, 0 0" stroke="#b8c3af" stroke-width="1" fill="none"></path></g><g transform="translate(476 396) rotate(0 52.360000000000014 10.625)"><text x="0" y="15.21533203125" font-family="Helvetica, Segoe UI Emoji" font-size="17px" fill="#30382c" text-anchor="start" style="white-space: pre;" direction="ltr" dominant-baseline="alphabetic">Notion task</text></g><g transform="translate(476 428) rotate(0 70.56 17.5)"><text x="0" y="12.5302734375" font-family="Helvetica, Segoe UI Emoji" font-size="14px" fill="#30382c" text-anchor="start" style="white-space: pre;" direction="ltr" dominant-baseline="alphabetic">In progress · P1</text><text x="0" y="30.0302734375" font-family="Helvetica, Segoe UI Emoji" font-size="14px" fill="#30382c" text-anchor="start" style="white-space: pre;" direction="ltr" dominant-baseline="alphabetic">Observed 10:42 UTC</text></g><g stroke-linecap="round" transform="translate(460 530) rotate(0 175 57)"><path d="M0 0 L350 0 L350 114 L0 114" stroke="none" stroke-width="0" fill="#ffffff"></path><path d="M0 0 C70.04 0, 140.08 0, 350 0 M0 0 C120.34 0, 240.68 0, 350 0 M350 0 C350 39.74, 350 79.48, 350 114 M350 0 C350 37.92, 350 75.83, 350 114 M350 114 C223.7 114, 97.41 114, 0 114 M350 114 C243.41 114, 136.82 114, 0 114 M0 114 C0 68.56, 0 23.13, 0 0 M0 114 C0 80.82, 0 47.63, 0 0" stroke="#b8c3af" stroke-width="1" fill="none"></path></g><g transform="translate(476 546) rotate(0 85.68 10.625)"><text x="0" y="15.21533203125" font-family="Helvetica, Segoe UI Emoji" font-size="17px" fill="#30382c" text-anchor="start" style="white-space: pre;" direction="ltr" dominant-baseline="alphabetic">Roost job / worker</text></g><g transform="translate(476 578) rotate(0 113.68 17.5)"><text x="0" y="12.5302734375" font-family="Helvetica, Segoe UI Emoji" font-size="14px" fill="#30382c" text-anchor="start" style="white-space: pre;" direction="ltr" dominant-baseline="alphabetic">blocked / Blocked · slot held</text><text x="0" y="30.0302734375" font-family="Helvetica, Segoe UI Emoji" font-size="14px" fill="#30382c" text-anchor="start" style="white-space: pre;" direction="ltr" dominant-baseline="alphabetic">Observed 10:42 UTC</text></g><g stroke-linecap="round" transform="translate(460 680) rotate(0 175 69.5)"><path d="M0 0 L350 0 L350 139 L0 139" stroke="none" stroke-width="0" fill="#ffffff"></path><path d="M0 0 C70.05 0, 140.09 0, 350 0 M0 0 C125.94 0, 251.87 0, 350 0 M350 0 C350 35.31, 350 70.61, 350 139 M350 0 C350 35.92, 350 71.85, 350 139 M350 139 C264.11 139, 178.23 139, 0 139 M350 139 C270.45 139, 190.91 139, 0 139 M0 139 C0 108.33, 0 77.66, 0 0 M0 139 C0 90.96, 0 42.91, 0 0" stroke="#b8c3af" stroke-width="1" fill="none"></path></g><g transform="translate(476 696) rotate(0 85.68 10.625)"><text x="0" y="15.21533203125" font-family="Helvetica, Segoe UI Emoji" font-size="17px" fill="#30382c" text-anchor="start" style="white-space: pre;" direction="ltr" dominant-baseline="alphabetic">GitHub PR / checks</text></g><g transform="translate(476 728) rotate(0 86.24000000000001 26.25)"><text x="0" y="12.5302734375" font-family="Helvetica, Segoe UI Emoji" font-size="14px" fill="#30382c" text-anchor="start" style="white-space: pre;" direction="ltr" dominant-baseline="alphabetic">Draft #142 · head b72e</text><text x="0" y="30.0302734375" font-family="Helvetica, Segoe UI Emoji" font-size="14px" fill="#30382c" text-anchor="start" style="white-space: pre;" direction="ltr" dominant-baseline="alphabetic">1 failed check on b72e</text><text x="0" y="47.5302734375" font-family="Helvetica, Segoe UI Emoji" font-size="14px" fill="#30382c" text-anchor="start" style="white-space: pre;" direction="ltr" dominant-baseline="alphabetic">Observed 10:42 UTC</text></g><g transform="translate(460 870) rotate(0 156.8 20)"><text x="0" y="14.3203125" font-family="Helvetica, Segoe UI Emoji" font-size="16px" fill="#30382c" text-anchor="start" style="white-space: pre;" direction="ltr" dominant-baseline="alphabetic">[ Notion ↗ ]  [ Worker progress ↗ ]</text><text x="0" y="34.3203125" font-family="Helvetica, Segoe UI Emoji" font-size="16px" fill="#30382c" text-anchor="start" style="white-space: pre;" direction="ltr" dominant-baseline="alphabetic">[ GitHub PR ↗ ]</text></g><g transform="translate(460 990) rotate(0 143.36 30)"><text x="0" y="14.3203125" font-family="Helvetica, Segoe UI Emoji" font-size="16px" fill="#30382c" text-anchor="start" style="white-space: pre;" direction="ltr" dominant-baseline="alphabetic">Human review differs from Done.</text><text x="0" y="34.3203125" font-family="Helvetica, Segoe UI Emoji" font-size="16px" fill="#30382c" text-anchor="start" style="white-space: pre;" direction="ltr" dominant-baseline="alphabetic">Idle and passed checks do not</text><text x="0" y="54.3203125" font-family="Helvetica, Segoe UI Emoji" font-size="16px" fill="#30382c" text-anchor="start" style="white-space: pre;" direction="ltr" dominant-baseline="alphabetic">accept the task. Only humans do.</text></g><g transform="translate(460 1140) rotate(0 147 18.75)"><text x="0" y="13.42529296875" font-family="Helvetica, Segoe UI Emoji" font-size="15px" fill="#30382c" text-anchor="start" style="white-space: pre;" direction="ltr" dominant-baseline="alphabetic">Navigation sketch; all destinations</text><text x="0" y="32.17529296875" font-family="Helvetica, Segoe UI Emoji" font-size="15px" fill="#30382c" text-anchor="start" style="white-space: pre;" direction="ltr" dominant-baseline="alphabetic">are fixtures in the prototype.</text></g></svg>